<?xml version="1.0" ?><!DOCTYPE svg  PUBLIC '-//W3C//DTD SVG 1.1//EN'  'http://www.w3.org/Graphics/SVG/1.1/DTD/svg11.dtd'><svg enable-background="new 0 0 48 48" height="48px" id="Layer_1" version="1.1" viewBox="0 0 48 48" width="48px" xml:space="preserve" xmlns="http://www.w3.org/2000/svg" xmlns:xlink="http://www.w3.org/1999/xlink"><g id="Layer_4"><path d="M24,0C10.745,0,0,10.745,0,24s10.745,24,24,24s24-10.745,24-24S37.255,0,24,0z M36.15,29.001l-2.146,2.149   L23.996,21.144l-9.999,9.999l-1.069-1.069l-0.005,0.005l-1.074-1.074l0.006-0.005l-0.006-0.005l11.63-11.629l0.005,0.005l0.52-0.52   l0.007,0.007l0.007-0.007l1.167,1.166l-0.009,0.007L36.15,28.996l-0.002,0.002L36.15,29.001z" fill="#241F20"/></g></svg>